<svg xmlns="http://www.w3.org/2000/svg" width="207" height="27" viewBox="0 0 207 27">
    <path fill="#3E40DB" fill-rule="nonzero" d="M5.173 15.8v10.752H.239V.674h.528L13.684 12.82c1.243 1.169 3.013 3.508 3.013 3.508s-.34-2.905-.34-4.678V.901h4.934v25.877h-.527L7.847 14.631c-1.28-1.206-3.048-3.504-3.05-3.508 0 .005.376 2.83.376 4.678zm22.145 10.752L38.578.674h.452l11.712 25.878h-5.536l-1.205-2.905H33.607l-1.205 2.905h-5.084zm9.904-11.77l-3.615 8.865h10.394l-3.728-8.865c-.753-1.81-1.544-4.6-1.544-4.602 0 .002-.754 2.792-1.507 4.602zM66.9 26.892c-7.381 0-13.256-5.584-13.256-13.166C53.643 6.144 59.518.56 66.899.56c7.382 0 13.256 5.583 13.256 13.165 0 7.582-5.874 13.165-13.256 13.165zm0-4.716c4.67 0 7.833-3.66 7.833-8.45 0-4.79-3.163-8.45-7.833-8.45s-7.833 3.66-7.833 8.45c0 4.79 3.163 8.45 7.833 8.45zm21.128 4.376V.9h2.712v23.237h12.089v2.415h-14.8zm32.389.301c-7.269 0-13.143-5.394-13.143-13.127 0-7.733 5.874-13.128 13.143-13.128 7.306 0 13.18 5.395 13.18 13.128 0 7.733-5.874 13.127-13.18 13.127zm0-2.452c5.988 0 10.356-4.564 10.356-10.675 0-6.111-4.368-10.676-10.356-10.676-5.95 0-10.319 4.565-10.319 10.676S114.466 24.4 120.416 24.4zm33.217 2.452c-7.645 0-13.407-5.394-13.407-13.127 0-7.733 5.724-13.128 13.18-13.128 3.691 0 6.817 1.057 8.926 3.32l-1.845 1.848c-1.657-1.735-3.917-2.716-7.08-2.716-6.026 0-10.357 4.565-10.357 10.676S147.42 24.4 153.633 24.4c3.502 0 5.988-1.056 7.57-2.338V16.78h-7.608v-2.414h10.168v8.94c-1.883 1.849-5.31 3.546-10.13 3.546zm18.718-.301V.9h2.749v25.652h-2.75zm24.103.301c-7.268 0-13.143-5.394-13.143-13.127 0-7.733 5.875-13.128 13.143-13.128 4.52 0 7.984 1.698 10.168 4.98l-2.071 1.509c-1.657-2.452-4.406-4.037-8.097-4.037-5.988 0-10.319 4.565-10.319 10.676S190.466 24.4 196.454 24.4c3.728 0 6.59-1.622 8.436-4.3l2.109 1.471c-2.26 3.32-5.95 5.281-10.545 5.281z"/>
</svg>
