<?xml version="1.0" encoding="UTF-8"?>
<svg width="16px" height="16px" viewBox="0 0 16 16" version="1.1" xmlns="http://www.w3.org/2000/svg" xmlns:xlink="http://www.w3.org/1999/xlink">
    <!-- Generator: Sketch 64 (93537) - https://sketch.com -->
    <title>Shape</title>
    <desc>Created with Sketch.</desc>
    <g id="Industries" stroke="none" stroke-width="1" fill="none" fill-rule="evenodd">
        <g id="Landing/v5" transform="translate(-1365.000000, -25.000000)" fill="#FFFFFF" fill-rule="nonzero">
            <g id="Group-3" transform="translate(1350.000000, 15.000000)">
                <g id="Button/Primary/Default/Active">
                    <g id="Group-2">
                        <g id="Group-7">
                            <path d="M19.6770745,22.552311 C18.7936177,22.552311 18.0774345,23.2684942 18.0774345,24.151951 C18.0774345,25.0354077 18.7936177,25.751591 19.6770745,25.751591 C20.5605312,25.751591 21.2767144,25.0354077 21.2767144,24.151951 C21.2742581,23.2695137 20.5595118,22.5547674 19.6770745,22.552311 Z M15,10 L15,11.59964 L16.59964,11.59964 L19.4792155,17.4325689 L18.2752936,19.3921558 C18.1438874,19.6239286 18.0749378,19.8858599 18.0751988,20.1522922 C18.0751988,21.2231902 18.807389,21.7519321 19.8000377,21.7519321 L29.1530688,21.7519321 L29.1530688,20.2137738 L19.9956611,20.2137738 C19.9416476,20.2170767 19.888811,20.1970583 19.8505464,20.1587937 C19.8122818,20.1205291 19.7922634,20.0676925 19.7955663,20.0136791 C19.8166504,19.9444924 19.8451338,19.8777811 19.8805228,19.8147022 L20.6797838,18.5526522 L26.6390295,18.5526522 C27.2260776,18.5574712 27.7664466,18.2333361 28.0385748,17.7131486 L30.9192681,12.7599658 C30.9754365,12.6341869 31.0029285,12.4974904 30.9997531,12.3597763 C30.9975077,12.1518194 30.9111382,11.9536368 30.7603398,11.8104204 C30.6095413,11.667204 30.4071705,11.591164 30.1993742,11.59964 L18.36025,11.59964 L17.6001136,10 L15,10 Z M27.552311,22.552311 C26.6690001,22.5529283 25.9533777,23.2693846 25.9537889,24.1526957 C25.9542005,25.0360068 26.6704901,25.7517961 27.5538012,25.7515906 C28.4371124,25.7513849 29.1530688,25.0352622 29.1530688,24.151951 C29.1506098,23.2690787 28.4351849,22.5541533 27.552311,22.552311 Z" id="Shape"></path>
                        </g>
                    </g>
                </g>
            </g>
        </g>
    </g>
</svg>