<?xml version="1.0" encoding="UTF-8"?>
<svg width="225px" height="58px" viewBox="0 0 225 58" version="1.1" xmlns="http://www.w3.org/2000/svg" xmlns:xlink="http://www.w3.org/1999/xlink">
    <!-- Generator: Sketch 61 (89581) - https://sketch.com -->
    <title>Group@1x</title>
    <desc>Created with Sketch.</desc>
    <g id="Naologic-Design-System" stroke="none" stroke-width="1" fill="none" fill-rule="evenodd">
        <g id="Sublogo---Tools---Color" transform="translate(-524.000000, -440.000000)">
            <g id="Group" transform="translate(524.000000, 440.000000)">
                <g id="Group-4" fill="#6869D3" fill-rule="nonzero">
                    <g id="Group-3">
                        <path d="M4.58326859,13.4598199 L4.58326859,22.6180759 L0.19763562,22.6180759 L0.19763562,0.573992871 L0.666329139,0.573992871 L12.1493225,10.9212156 C13.2541002,11.9173767 14.8275717,13.909699 14.8275717,13.909699 C14.8275717,13.909699 14.5262686,11.4353632 14.5262686,9.9250543 L14.5262686,0.766798218 L18.9119016,0.766798218 L18.9119016,22.8108814 L18.4432079,22.8108814 L6.96021476,12.4636586 C5.82290198,11.4362153 4.25109461,9.47842285 4.24849063,9.47517917 C4.24909347,9.47953902 4.58326859,11.8866683 4.58326859,13.4598199 Z M24.2693109,22.6180759 L34.2792671,0.573992871 L34.6810046,0.573992871 L45.0926977,22.6180759 L40.1714153,22.6180759 L39.1001157,20.1437401 L29.860156,20.1437401 L28.7888563,22.6180759 L24.2693109,22.6180759 Z M33.074055,12.5921956 L29.860156,20.1437401 L39.1001157,20.1437401 L35.7857824,12.5921956 C35.1163947,11.0501548 34.4135463,8.67305972 34.4131797,8.67181975 C34.4128005,8.67316592 33.7434277,11.0501893 33.074055,12.5921956 Z M59.4557206,22.907284 C52.8940099,22.907284 47.6714238,18.1514178 47.6714238,11.6924371 C47.6714238,5.23345639 52.8940099,0.477590129 59.4557206,0.477590129 C66.0174313,0.477590129 71.240016,5.23345639 71.240016,11.6924371 C71.240016,18.1514178 66.0174313,22.907284 59.4557206,22.907284 Z M59.4557206,18.890505 C63.6070062,18.890505 66.4191688,15.7734846 66.4191688,11.6924371 C66.4191688,7.61138959 63.6070062,4.49436912 59.4557206,4.49436912 C55.3044335,4.49436912 52.4922724,7.61138959 52.4922724,11.6924371 C52.4922724,15.7734846 55.3044335,18.890505 59.4557206,18.890505 Z M78.2378532,22.6180759 L78.2378532,0.766798218 L80.6482782,0.766798218 L80.6482782,20.5614851 L91.3947532,20.5614851 L91.3947532,22.6180759 L78.2378532,22.6180759 Z M107.029943,22.8751498 C100.568667,22.8751498 95.3460811,18.2799546 95.3460811,11.6924371 C95.3460811,5.10491954 100.568667,0.509724376 107.029943,0.509724376 C113.524698,0.509724376 118.747283,5.10491954 118.747283,11.6924371 C118.747283,18.2799546 113.524698,22.8751498 107.029943,22.8751498 Z M107.029943,20.7864248 C112.352963,20.7864248 116.236424,16.8981827 116.236424,11.6924371 C116.236424,6.48669149 112.352963,2.59844949 107.029943,2.59844949 C101.740401,2.59844949 97.8569395,6.48669149 97.8569395,11.6924371 C97.8569395,16.8981827 101.740401,20.7864248 107.029943,20.7864248 Z M136.558551,22.8751498 C129.762493,22.8751498 124.640342,18.2799546 124.640342,11.6924371 C124.640342,5.10491954 129.729016,0.509724376 136.357683,0.509724376 C139.638537,0.509724376 142.417221,1.40948289 144.291995,3.33753676 L142.651568,4.91211419 C141.178531,3.43393951 139.169844,2.59844949 136.357683,2.59844949 C131.001185,2.59844949 127.1512,6.48669149 127.1512,11.6924371 C127.1512,16.8981827 131.034662,20.7864248 136.558551,20.7864248 C139.672016,20.7864248 141.881572,19.8866663 143.287652,18.7941024 L143.287652,14.2953099 L136.525074,14.2953099 L136.525074,12.238719 L145.564164,12.238719 L145.564164,19.854532 C143.890258,21.4291093 140.84375,22.8751498 136.558551,22.8751498 Z M153.198085,22.6180759 L153.198085,0.766798218 L155.641988,0.766798218 L155.641988,22.6180759 L153.198085,22.6180759 Z M174.62499,22.8751498 C168.163714,22.8751498 162.941128,18.2799546 162.941128,11.6924371 C162.941128,5.10491954 168.163714,0.509724376 174.62499,0.509724376 C178.642363,0.509724376 181.72235,1.95576482 183.66408,4.75144296 L181.822783,6.0368123 C180.349747,3.94808719 177.905844,2.59844949 174.62499,2.59844949 C169.301969,2.59844949 165.451986,6.48669149 165.451986,11.6924371 C165.451986,16.8981827 169.301969,20.7864248 174.62499,20.7864248 C177.939323,20.7864248 180.483659,19.4046527 182.124087,17.1231223 L183.998861,18.3763574 C181.990174,21.2041697 178.709319,22.8751498 174.62499,22.8751498 Z" id="Shape"></path>
                    </g>
                </g>
                <text id="design" font-family="Nunito-Black, Nunito" font-size="32" font-weight="700" fill="#32326E">
                    <tspan x="125" y="52">design</tspan>
                </text>
            </g>
        </g>
    </g>
</svg>