<?xml version="1.0" encoding="UTF-8"?>
<svg width="13px" height="13px" viewBox="0 0 13 13" version="1.1" xmlns="http://www.w3.org/2000/svg" xmlns:xlink="http://www.w3.org/1999/xlink">
    <!-- Generator: Sketch 60.1 (88133) - https://sketch.com -->
    <title>Orion_-money-bag-bitcoin</title>
    <desc>Created with Sketch.</desc>
    <g id="Help-Center" stroke="none" stroke-width="1" fill="none" fill-rule="evenodd">
        <g id="Support/FAQ" transform="translate(-38.000000, -379.000000)" fill="#47484C" fill-rule="nonzero">
            <g id="Orion_-money-bag-bitcoin" transform="translate(38.000000, 379.000000)">
                <path d="M6.58403936,8.30555556 L5.11377141,8.30555556 L5.11377141,9.75 L6.58403936,9.75 C7.05197534,9.75 7.43131239,9.42665009 7.43131239,9.02777778 C7.43131239,8.62890547 7.05197534,8.30555556 6.58403936,8.30555556 Z M7.00767589,6.9248366 C7.00767589,6.77836083 6.93941365,6.63788432 6.81790607,6.53431031 C6.6963985,6.43073629 6.53159886,6.37254902 6.3597612,6.37254902 L5.11377141,6.37254902 L5.11377141,7.45588235 L6.384681,7.45588235 C6.72331147,7.44497834 6.99488388,7.21348788 7.00767589,6.9248366 L7.00767589,6.9248366 Z M9.59933466,0.870915033 C8.1290667,0.870915033 8.02938752,0 7.10735508,0 C6.18532263,0 6.03580386,0.849673203 4.6153755,0.849673203 C3.61858366,0.849673203 1.625,-0.339869281 1.625,0.424836601 C1.625,1.18954248 3.19494714,2.29411765 4.06713999,2.97385621 L8.07922711,2.97385621 C9.30029711,1.86928105 10.0977306,0.870915033 9.59933466,0.870915033 Z" id="Shape"></path>
                <path d="M11.7153511,2.63311602 C11.5375567,2.40735005 11.2168748,2.37184902 10.9968256,2.55357178 C10.2027276,3.18383908 9.22664134,3.52001785 8.22537001,3.50810271 C8.0609887,3.85292129 8.10080634,4.26433506 8.32801651,4.56869264 C9.52866358,4.55931478 10.6925808,4.13979907 11.6383662,3.37552897 C11.8568681,3.19182373 11.8912269,2.86048077 11.7153511,2.63311602 L11.7153511,2.63311602 Z M12.9471092,5.73534156 C12.4691089,5.00465127 11.6707668,4.56736387 10.8171942,4.56868962 C10.5337437,4.56868962 10.3039617,4.80611378 10.3039617,5.0989876 C10.3039617,5.39186143 10.5337437,5.62928257 10.8171942,5.62928257 C11.3292246,5.62433248 11.8101346,5.88271938 12.1002755,6.31866602 C12.2698504,6.51913331 12.5569986,6.55860441 12.7714002,6.41091814 C12.9858018,6.26323187 13.0609808,5.97417887 12.9471092,5.73534156 L12.9471092,5.73534156 Z" id="Shape"></path>
                <path d="M8.20117188,4.0625 L3.98632812,4.0625 C2.76757813,5.0223747 0,7.53937947 0,10.8669451 C0,12.0449988 1.136777,13 2.5390625,13 L9.6484375,13 C11.050723,13 12.1875,12.0449988 12.1875,10.8669451 C12.1875,7.56071002 9.4453125,5.0223747 8.20117188,4.0625 Z" id="Shape"></path>
            </g>
        </g>
    </g>
</svg>