<?xml version="1.0" encoding="UTF-8"?>
<svg width="16px" height="16px" viewBox="0 0 16 16" version="1.1" xmlns="http://www.w3.org/2000/svg" xmlns:xlink="http://www.w3.org/1999/xlink">
    <!-- Generator: Sketch 60.1 (88133) - https://sketch.com -->
    <title>newweprofile</title>
    <desc>Created with Sketch.</desc>
    <g id="Help-Center" stroke="none" stroke-width="1" fill="none" fill-rule="evenodd">
        <g id="Support/FAQ" transform="translate(-37.000000, -76.000000)" fill="#47484C" fill-rule="nonzero">
            <g id="newweprofile" transform="translate(37.000000, 76.000000)">
                <path d="M8,0 C3.581722,0 0,3.581722 0,8 C0,12.418278 3.581722,16 8,16 C12.418278,16 16,12.418278 16,8 C16,5.87826808 15.1571453,3.84343678 13.6568542,2.34314575 C12.1565632,0.842854723 10.1217319,0 8,0 Z M12.275,13.525 L11.65,13.4 C9.625,13.025 9.5,11.975 9.5,11.55 L9.5,11.5 C10.5226472,11.4360575 11.5361695,11.2685332 12.525,11 C11.7,10.175 11,9.775 11,6.3 C11,2.825 7.5,3.5 7.5,3.5 C5,3.5 5,6.2 5,6.2 C5,9.675 4.35,10.15 3.525,11 C4.49689572,11.2682495 5.49381055,11.4357982 6.5,11.5 L6.5,11.575 C6.5,11.975 6.375,13.05 4.35,13.425 L3.775,13.575 C1.37940858,11.7667144 0.403247079,8.63244011 1.34841496,5.78368374 C2.29358284,2.93492737 4.9496997,1.00577998 7.95110662,0.988002501 C10.9525135,0.970469315 13.6311416,2.86823585 14.6097577,5.70567584 C15.5883738,8.54311583 14.6491524,11.688657 12.275,13.525 L12.275,13.525 Z" id="Shape"></path>
            </g>
        </g>
    </g>
</svg>