<?xml version="1.0" encoding="UTF-8"?>
<svg width="16px" height="16px" viewBox="0 0 16 16" version="1.1" xmlns="http://www.w3.org/2000/svg" xmlns:xlink="http://www.w3.org/1999/xlink">
    <!-- Generator: Sketch 60.1 (88133) - https://sketch.com -->
    <title>Orion_privacy</title>
    <desc>Created with Sketch.</desc>
    <g id="Help-Center" stroke="none" stroke-width="1" fill="none" fill-rule="evenodd">
        <g id="Support/FAQ" transform="translate(-37.000000, -481.000000)" fill="#47484C" fill-rule="nonzero">
            <g id="Orion_privacy" transform="translate(37.000000, 481.000000)">
                <path d="M14.50525,1.26450794 C13.7082166,0.454798366 12.6271927,-9.38266656e-05 11.5,-9.38266656e-05 C10.3728073,-9.38266656e-05 9.29178336,0.454798366 8.49475,1.26450794 C7.27059465,2.51988141 6.91684061,4.40338161 7.6,6.02844444 L3.653,10.0378413 L2.5195,8.88634921 C2.32425007,8.68805997 2.00774993,8.68805997 1.8125,8.88634921 L0.39825,10.3227937 C0.203059031,10.5211428 0.203059031,10.8426667 0.39825,11.0410159 L1.532,12.1927619 L0.711,13.0265397 C0.3082229,13.4275265 0.148438811,14.0173534 0.292543218,14.5712309 C0.436647625,15.1251084 0.862440463,15.5577087 1.40764737,15.7041629 C1.95285428,15.8506171 2.53348319,15.6883633 2.92825,15.2792381 L9.81775,8.28088889 C10.3501591,8.51329227 10.9235209,8.63331019 11.503,8.63365079 C13.221491,8.63318261 14.770484,7.58111577 15.4276633,5.96804285 C16.0848426,4.35496994 15.7207829,2.49857048 14.50525,1.26450794 Z M13.08975,5.93371429 C12.4462802,6.58749266 11.4784895,6.78310937 10.6376821,6.42934363 C9.79687467,6.07557789 9.24864449,5.24210257 9.24864449,4.3175873 C9.24864449,3.39307203 9.79687467,2.55959671 10.6376821,2.20583097 C11.4784895,1.85206524 12.4462802,2.04768195 13.08975,2.70146032 C13.5155997,3.12795735 13.7553519,3.71009209 13.7553519,4.3175873 C13.7553519,4.92508252 13.5155997,5.50721726 13.08975,5.93371429 L13.08975,5.93371429 Z" id="Shape"></path>
            </g>
        </g>
    </g>
</svg>