<?xml version="1.0" encoding="UTF-8"?>
<svg width="16px" height="16px" viewBox="0 0 16 16" version="1.1" xmlns="http://www.w3.org/2000/svg" xmlns:xlink="http://www.w3.org/1999/xlink">
    <!-- Generator: Sketch 60.1 (88133) - https://sketch.com -->
    <title>Orion_settings</title>
    <desc>Created with Sketch.</desc>
    <g id="Help-Center" stroke="none" stroke-width="1" fill="none" fill-rule="evenodd">
        <g id="Support/FAQ" transform="translate(-37.000000, -113.000000)" fill="#47484C" fill-rule="nonzero">
            <g id="Orion_settings" transform="translate(37.000000, 113.000000)">
                <path d="M15.7444848,2.81969231 L13.9413333,3.97661538 C13.8176524,4.05604141 13.657636,4.04540177 13.5452121,3.95027692 L12.801697,3.32110769 C12.7496687,3.27706864 12.7119079,3.21814072 12.6933333,3.152 L12.4572121,2.31384615 C12.4144851,2.16233593 12.4791288,2.00078041 12.6138182,1.92246154 L14.6744242,0.724430769 C13.7192134,-0.0903610389 12.3702708,-0.228681895 11.2739098,0.37574131 C10.1775489,0.980164515 9.55709278,2.20421379 9.70981818,3.46141538 C9.75485042,3.78461519 9.64972688,4.11074751 9.42521212,4.34436923 L4.52048485,9.32455385 C4.29247861,9.55185843 3.97342106,9.65872542 3.6569697,9.61378462 C3.53122899,9.59741142 3.40458862,9.58918963 3.27781818,9.58916923 C2.39106572,9.58297469 1.54659982,9.97350357 0.969133835,10.6568357 C0.391667855,11.3401678 0.139775216,12.2469915 0.280484848,13.136 L2.32727273,11.8220308 C2.45095362,11.7426047 2.61097006,11.7532444 2.72339394,11.8483692 L3.46690909,12.4775385 C3.51893734,12.5215775 3.55669815,12.5805054 3.57527273,12.6466462 L3.81139394,13.4857846 C3.85412101,13.6372948 3.78947724,13.7988504 3.65478788,13.8771692 L1.4729697,15.1460923 C2.04776567,15.5813968 2.75642917,15.7946662 3.472,15.7476923 C4.31163415,15.6934711 5.09140253,15.2876949 5.62507034,14.6272766 C6.15873815,13.9668583 6.39838959,13.1110941 6.28678788,12.2643692 C6.23969649,11.9440759 6.34284479,11.6198522 6.56557576,11.3880615 L11.4528485,6.42461538 C11.68122,6.19630707 12.0015991,6.08957106 12.3187879,6.13612308 C13.1862501,6.25430903 14.061732,5.98650937 14.7205496,5.40145233 C15.3793672,4.81639528 15.7573804,3.97103986 15.7575758,3.08233846 C15.7575758,2.99372308 15.7517576,2.90633846 15.7444848,2.81969231 Z" id="Path"></path>
                <path d="M13.1733333,9.62313846 C12.8908528,9.58029406 12.6038438,9.57797393 12.3207273,9.61624615 C12.0052869,9.66406203 11.6859756,9.55932682 11.457697,9.33316923 L10.3667879,8.22547692 L8.328,10.2956308 L9.42593939,11.4104615 C9.64979997,11.6419756 9.75504776,11.9659417 9.71078788,12.2872615 C9.69466537,12.414937 9.68656817,12.5435255 9.68654545,12.6722462 C9.68051548,13.5725334 10.0651324,14.4298611 10.7380566,15.0161096 C11.4109809,15.6023582 12.303962,15.8580683 13.1793939,15.7152 L11.8853333,13.6369231 C11.8071107,13.5113394 11.8175892,13.3488612 11.9112727,13.2347077 L12.5309091,12.4797538 C12.5742809,12.4269252 12.632316,12.3885834 12.6974545,12.3697231 L13.5238788,12.1299692 C13.6730934,12.0865848 13.8322011,12.1522231 13.9093333,12.2889846 L15.1590303,14.5043692 C15.5877393,13.9207302 15.7977773,13.2011642 15.7515152,12.4745846 C15.6541946,11.0290336 14.5834991,9.84485389 13.1733333,9.62313846 L13.1733333,9.62313846 Z M6.56969697,4.37095385 C6.34484787,4.13906897 6.23972907,3.81376092 6.28557576,3.49169231 C6.40197102,2.61088455 6.13822893,1.72193367 5.56203638,1.05298041 C4.98584384,0.38402714 4.15329683,0.000198340745 3.27806061,0 C3.19078788,0 3.1049697,0.00590769231 3.01939394,0.0132923077 L4.15878788,1.84418462 C4.23701048,1.96976829 4.22653205,2.13224652 4.13284848,2.2464 L3.51321212,3.00135385 C3.46984033,3.05418253 3.41180526,3.09252427 3.34666667,3.11138462 L2.52121212,3.35113846 C2.3719975,3.39452287 2.21288979,3.32888459 2.13575758,3.19212308 L0.955878788,1.09981538 C0.273696526,1.92251985 0.063569744,3.04696192 0.401541539,4.06621556 C0.739513334,5.08546921 1.57662745,5.85189239 2.60993939,6.08812308 C2.95170756,6.1674381 3.30452848,6.18526723 3.65236364,6.1408 C3.97066315,6.0951133 4.29183776,6.20184871 4.52193939,6.42978462 L5.60436364,7.52886154 L7.64315152,5.45870769 L6.56969697,4.37095385 Z" id="Shape"></path>
            </g>
        </g>
    </g>
</svg>