<svg xmlns="http://www.w3.org/2000/svg" xmlns:xlink="http://www.w3.org/1999/xlink" width="35" height="35" viewBox="0 0 35 35">
    <defs>
        <linearGradient id="a" x1="46.228%" x2="92.711%" y1="45.557%" y2="93.99%">
            <stop offset="0%" stop-color="#0062A5"/>
            <stop offset="100%" stop-color="#AB53F1"/>
        </linearGradient>
        <path id="b" d="M22.117 1.663A5.327 5.327 0 0 0 18.27 0a5.327 5.327 0 0 0-3.848 1.663l-1.24 1.294 1.282 1.337L15.704 3a3.521 3.521 0 0 1 5.127.002c1.415 1.477 1.415 3.87 0 5.346a3.521 3.521 0 0 1-5.126.002L13.14 5.673l-1.282-1.335-2.565-2.675C7.17-.55 3.727-.548 1.603 1.666c-2.122 2.215-2.122 5.805 0 8.02 2.124 2.214 5.566 2.216 7.69.003l1.24-1.294L9.25 7.06 8.01 8.352a3.521 3.521 0 0 1-5.126-.002c-1.416-1.476-1.416-3.87 0-5.346a3.521 3.521 0 0 1 5.126-.002l2.565 2.67 1.718 1.792 2.127 2.218c2.124 2.216 5.568 2.218 7.693.004 2.125-2.215 2.127-5.806.004-8.023z"/>
        <linearGradient id="c" x1="50%" x2="50%" y1="2.626%" y2="100%">
            <stop offset="0%" stop-color="#0062A5"/>
            <stop offset="100%" stop-color="#B3D0E4" stop-opacity="0"/>
        </linearGradient>
        <path id="e" d="M22.117 1.663A5.327 5.327 0 0 0 18.27 0a5.327 5.327 0 0 0-3.848 1.663l-1.24 1.294 1.282 1.337L15.704 3a3.521 3.521 0 0 1 5.127.002c1.415 1.477 1.415 3.87 0 5.346a3.521 3.521 0 0 1-5.126.002L13.14 5.673l-1.282-1.335-2.565-2.675C7.17-.55 3.727-.548 1.603 1.666c-2.122 2.215-2.122 5.805 0 8.02 2.124 2.214 5.566 2.216 7.69.003l1.24-1.294L9.25 7.06 8.01 8.352a3.521 3.521 0 0 1-5.126-.002c-1.416-1.476-1.416-3.87 0-5.346a3.521 3.521 0 0 1 5.126-.002l2.565 2.67 1.718 1.792 2.127 2.218c2.124 2.216 5.568 2.218 7.693.004 2.125-2.215 2.127-5.806.004-8.023z"/>
    </defs>
    <g fill="none" fill-rule="evenodd">
        <g fill-rule="nonzero">
            <ellipse cx="17.257" cy="17.253" fill="#000" rx="17.257" ry="17.253"/>
            <ellipse cx="17.257" cy="17.253" fill="url(#a)" rx="17.257" ry="17.253"/>
        </g>
        <path fill="#FFF" fill-rule="nonzero" d="M27.117 13.33a5.327 5.327 0 0 0-3.847-1.663 5.327 5.327 0 0 0-3.848 1.663l-1.24 1.293 1.282 1.338 1.24-1.294a3.521 3.521 0 0 1 5.127.002c1.415 1.476 1.415 3.87 0 5.346a3.521 3.521 0 0 1-5.126.002L18.14 17.34l-1.282-1.336-2.565-2.674c-2.124-2.213-5.566-2.212-7.69.003-2.122 2.215-2.122 5.804 0 8.02 2.124 2.214 5.566 2.215 7.69.002l1.24-1.293-1.283-1.336-1.24 1.293a3.521 3.521 0 0 1-5.126-.002c-1.416-1.476-1.416-3.87 0-5.346a3.521 3.521 0 0 1 5.126-.002l2.565 2.67 1.718 1.792 2.127 2.217c2.124 2.217 5.568 2.219 7.693.004 2.125-2.214 2.127-5.806.004-8.022z"/>
        <g transform="translate(5 11.667)">
            <mask id="d" fill="#fff">
                <use xlink:href="#b"/>
            </mask>
            <path fill="url(#c)" fill-rule="nonzero" d="M7.029 7.069l3.343.068.068 3.342-3.343-.068z" mask="url(#d)" opacity=".8" transform="rotate(45 8.735 8.774)"/>
        </g>
        <g transform="translate(5 11.667)">
            <mask id="f" fill="#fff">
                <use xlink:href="#e"/>
            </mask>
            <path fill="url(#c)" fill-rule="nonzero" d="M13.22.744l3.344.069.068 3.342-3.343-.069z" mask="url(#f)" opacity=".8" transform="rotate(-135 14.926 2.45)"/>
        </g>
    </g>
</svg>
